<svg width="300" height="316" xmlns="http://www.w3.org/2000/svg"><g fill="none" fill-rule="evenodd"><path stroke="#A14040" stroke-width="15" d="M-31.5-25.5h360v652h-360z"/><path fill="#000" d="M122.542 236.45l10.324 28.396h31.267l9.385-28.397-9.385-11.97h-31.267z"/><path fill="#4B0C0C" d="M126.149 236.45l9.922 26.832h23.696l9.872-28.373-7.102-7.686h-28.074z"/><path fill="#000" d="M132.866 264.846l-9.318 50.22h49.97l-9.385-50.22z"/><path fill="#4B0C0C" d="M136.07 266.324l-8.803 47.462h41.03l-8.602-47.462z"/><path stroke="#000" stroke-width="6" fill="#FFF" d="M88.992 181.558l46.992 40.65h25.75l44.254-38.404-19.782 85.42-11.47-26.519-3.307-2.94-9.694-10.502h-25.751l-13.095 14.602-10.07 25.359z"/><path d="M208.92 179.22l23.454 18.31 67.1 17.346-48.614 100.19H169.64l39.28-135.845zm-123.585-5.454l41.932 141.3H47.666L0 214.633l67.101-17.345 18.234-23.523z" fill="#000"/><g><path d="M87.003 178.413l-5.768-53.653-6.459-3.738-7.026-12.812-3.075-22.134 10.101-9.752h9.204l12.264-34.93 26.95 2.74 27.196-2.74c9.749 1.611 15.685 1.611 17.81 0 2.123-1.612 9.19-4.241 21.203-7.888l9.742 7.888s4.634 9.21 6.67 12.236c1.358 2.017 2.037 6.733 2.037 14.148l4.634 10.628 2.776-2.082 6.25-4.273 9.255 14.025-2.422 22.134-4.3 11.148-2.533 1.664h-6.25l-.826 12.063-4.088 36.783-3.148 10.4-46.516 39.762h-23.705l-49.976-41.617z" fill="#EED595"/><path d="M85.706 145.456c5.013 16.429 8.092 25.142 9.239 26.14 1.146.998 6.704 4.319 16.672 9.962 7.283 8.378 12.35 13.413 15.203 15.105 4.28 2.539 16.212 4.067 22.917 4.067 6.706 0 20.401-2.745 22.091-4.067 1.127-.88 4.34-4.452 9.643-10.712 10.147-4.487 15.822-7.505 17.022-9.056 1.2-1.55 4.81-12.03 10.83-31.439l-10.83 19.771-14.151 6.369-7.48 5.3-8.705 9.055-20.446 4.01-19.665-4.01-5.504-4.393-8.21-7.792-8.283-2.17-7.776-6.369-12.567-19.77z" fill="#E1BD76"/><path d="M170.957 0c15.736 0 11.906 4.454 15.638 6.199 1.629 0 4.845-1.559 9-1.42 7.98.266 16.195 4.137 22.246 9.928 2.942 6.26 3.396 18.984 1.36 38.171l-.079.741-4.37 20.644h1.193l1.896-1.432h5.556l8.907 13.127-1.747 17.873c-2.975 9.864-4.92 16.043-5.833 18.536-.887 2.418-3.07 3.602-6.553 3.552l-.33-.008-8.518 58.952h-3.089l4.79-42.07c-6.02 14.341-10.314 22.646-12.879 24.916-2.518 2.227-8.593 5.387-18.224 9.479l-.549.232-10.285 11.197c-8.69.896-15.28 1.344-19.768 1.344-6.732 0-14.707-1.344-18.55-1.344-2.463 0-4.868-1.157-7.213-3.47l-.282-.284L114 175.55h-3.27l-14.978-9.9-10.046-20.193 3.64 34.945-3.64-2.98-7.609-51.51H74.95c-1.225 0-2.526-1.089-3.903-3.266l-.173-.278-5.523-15.472-2.233-20.937 5.476-8.117 3.998-3.578h4.272c.823-19.533 1.234-30.826 1.234-33.878 0-4.578 13.489-26.653 19.153-29.817C102.915 7.404 155.22 0 170.957 0zm10.869 39.52c-10.121 4.795-18.427 6.836-24.917 6.122-6.49-.713-19.138.04-37.945 2.26l-19.869 2.2c-3.385-.68-5.445.833-6.18 4.539-.734 3.705-1.717 10.54-2.948 20.503l-2.868 21.908-3.04 13.861-.975 7.904v9.365l5.168 13.505 10.843 20.928 8.63 5.659 5.027 1.559-1.258-3.708-1.083-5.51a50.408 50.408 0 005.521 9.501c2.2 2.987 5.757 7.335 10.673 13.043 11.673 1.861 19.005 2.792 21.998 2.792 2.992 0 9.21-.52 18.65-1.558 7.88-8.29 12.061-13.048 12.543-14.277.481-1.228 1.873-3.872 4.174-7.932.027 4.028-.41 6.672-1.31 7.932-.9 1.261 1.806-.07 8.117-3.991 3.868-2.334 6.672-5.266 8.41-8.795 1.738-3.53 3.551-7.49 5.439-11.881l2.73-6.15 3.668-8.893c1.364-3.754 1.364-10.252 0-19.493-1.364-9.24-2.4-14.552-3.107-15.933l-5.21-29.144c-2.781-12.713-8.08-20.36-15.896-22.938-3.027.256-2.502-.038-4.15-.582-.36-.352-.637-1.285-.835-2.797zm38.776 37.611c-.997 0-3.088 1.453-6.272 4.358l-.302.277H219c.762 0 1.946 1.14 3.551 3.42l.187.27 2.186 5.655v5.757l-.563 7.933-1.623 5.098h-4.925l-3.132 1.55c1.034 5.811 2.474 8.717 4.32 8.717 3.525 0 4.347-3.429 5.923-10.267 2.527-10.962 3.324-18.634 2.39-23.016-3.446-6.501-5.683-9.752-6.712-9.752zM67.22 87.785c-.45 2.673.448 9.335.988 12.574 2.45 14.688 6.143 20.893 11.081 18.616v-9.119c-3.084.66-5.277.037-6.58-1.87-1.955-2.859-2.277-10.07-1.797-14.932.233-2.364.618-5.295 3.777-9.472 1.227-1.62 3.38-1.954 6.462-.999-1.402-1.684-2.404-2.64-3.007-2.867-4.353-1.643-9.68.671-10.924 8.07zm149.82-4.423c-3.567 0-4.902 4.511-4.005 13.533 1.804 0 2.706.819 2.706 2.458 0 1.547-.51 2.702-1.528 3.463l-.185.13 1.247 6.071c2.293-.84 3.454-1.261 3.481-1.265.795-.104 1.914.602 2.604 0 .74-.646 1.023-2.6 1.028-2.622 2.578-12.21-.018-21.768-5.349-21.768zM78.544 83.33c-3.428 0-8.872 7.318-5.274 22.7.44 2.391 2.31 2.435 3.474 2.516.706.049 1.83.049 3.371 0l.871-6.44c-1.049-.408-1.573-1.344-1.573-2.808 0-1.463.876-2.274 2.629-2.433l1.285-7.773c-.904-3.841-2.498-5.762-4.783-5.762zm134.718 15.043c-.646 0-.079 1.01 0 1.703.079.694.079 1.331.724 1.331.574 0 .62-.972.623-1.641v-.235c0-.645-.701-1.158-1.347-1.158zm-131.503.08c-.646 0-1.177.406-1.177 1.052 0 .645.21 1.62.856 1.62s.6-.69.6-1.336c0-.645.367-1.336-.279-1.336z" fill="#000"/><path d="M123.8 37.366c3.336 1.66 5.922 2.717 7.757 3.171 1.836.455 4.751.76 8.745.916a43.287 43.287 0 01-8.044.748c-2.72 0-5.54-1.611-8.459-4.835zm74.693-27.73l12.832 8.762-5.532.637 5.922 6.507-3.951-.832 4.07 8.499-4.81 2.024 4.3 4.55c-2.938-.284-4.601-.426-4.989-.426-.387 0-1.785-1.874-4.192-5.621 3.382-.838 5.255-1.257 5.621-1.257.366 0-1.9-2.312-6.797-6.937h4.196l-5.838-8.771h3.622l-4.454-7.135zm-63.084 21.502c3.262.422 5.562.944 6.899 1.568 2.005.935 4.326 5.595 3.395 4.66-.622-.623-4.053-2.699-10.294-6.228zm9.683-3.177l10.14 6.353h-2.933c-1.38 0-5.002-2.118-10.865-6.353h3.658zm22.455-11.19l6.371 7.56v9.983c-.606 0-.909-.368-.909-1.105s-1.82-4.716-5.462-11.937v-4.501zm-11.104 2.264l3.828 1.955 5.753 6.971.627 5.248c-4.253-5.027-6.866-7.882-7.839-8.567-.973-.685-1.763-2.554-2.37-5.607zm-8.775 4.754c3.67 1.064 5.77 1.596 6.302 1.596.53 0 2.631 2.101 6.301 6.303h-4.174c-.588 0-3.397-2.633-8.429-7.899zm25.379-14.153c1.737 1.838 3.09 3.987 4.06 6.448 1.453 3.691-.741 18.008 0 11.655.493-4.236-.86-10.27-4.06-18.103zM178.6 8.57c2.759 1.788 4.564 4.317 5.415 7.588.85 3.271.041 6.897-2.428 10.877v-8.75c0-1.322-.996-4.56-2.987-9.715z" fill="#FFF"/></g></g></svg>