<svg width="385" height="405" xmlns="http://www.w3.org/2000/svg"><g fill="none" fill-rule="evenodd"><path fill="#000" d="M157.262 303.443l13.249 36.443h40.127l12.044-36.443-12.044-15.362H170.51z"/><path fill="#4B0C0C" d="M161.89 303.443l12.735 34.436h30.41l12.668-36.412-9.114-9.864H172.56z"/><path fill="#000" d="M170.51 339.886l-11.957 64.448h64.129l-12.044-64.448z"/><path fill="#4B0C0C" d="M174.623 341.782l-11.297 60.91h52.655l-11.04-60.91z"/><path stroke="#000" stroke-width="6" fill="#FFF" d="M114.207 233l60.306 52.168h33.047l56.79-49.286-25.386 109.622-14.72-34.032-4.244-3.774-12.44-13.477h-33.047l-16.805 18.739-12.924 32.544z"/><path d="M268.113 230l30.1 23.498 86.113 22.26-62.389 128.576H217.704L268.113 230zm-158.6-7l53.813 181.334H61.171L0 275.447l86.113-22.26 23.4-30.187z" fill="#000"/><g transform="translate(81)"><path d="M30.653 228.964l-7.401-68.855-8.289-4.797-9.017-16.443L2 110.464 14.963 97.95h11.811l15.739-44.827 34.586 3.515L112 53.122c12.512 2.068 20.13 2.068 22.856 0 2.725-2.068 11.796-5.442 27.211-10.122l12.502 10.122s5.948 11.82 8.56 15.703c1.743 2.589 2.614 8.64 2.614 18.157l5.947 13.64 3.563-2.673 8.021-5.484 11.877 18-3.109 28.404-5.518 14.307-3.25 2.136h-8.021l-1.06 15.481-5.247 47.204-4.04 13.347-59.695 51.028H94.79l-64.137-53.408z" fill="#EED595"/><path d="M28.99 186.669c6.432 21.083 10.384 32.265 11.856 33.546 1.471 1.28 8.603 5.542 21.396 12.785 9.347 10.751 15.85 17.213 19.51 19.385 5.492 3.258 20.806 5.219 29.411 5.219s26.18-3.523 28.35-5.22c1.446-1.13 5.57-5.713 12.374-13.747 13.023-5.758 20.305-9.632 21.846-11.621 1.54-1.99 6.173-15.439 13.898-40.347l-13.898 25.373-18.161 8.173-9.598 6.8-11.172 11.622-26.24 5.146-25.236-5.146L76.262 233l-10.535-10-10.631-2.785-9.979-8.173-16.128-25.373z" fill="#E1BD76"/><path d="M138.395 0c20.194 0 15.28 5.716 20.069 7.955 2.09 0 6.217-2 11.55-1.822 10.241.341 20.783 5.31 28.548 12.741 3.784 8.05 4.36 24.43 1.731 49.138l-.086.8-5.607 26.493h1.53l2.433-1.838h7.13l11.431 16.846-2.243 22.937c-3.817 12.659-6.312 20.588-7.485 23.788-1.144 3.118-3.968 4.637-8.474 4.558l-.36-.01-10.931 75.655h-3.964l6.147-53.989c-7.726 18.404-13.236 29.062-16.528 31.974-3.238 2.865-11.06 6.931-23.468 12.2l-.624.263-13.199 14.37c-11.153 1.15-19.61 1.724-25.369 1.724-8.64 0-18.874-1.724-23.806-1.724-3.178 0-6.28-1.5-9.305-4.502l-.313-.316L65.3 225.288h-4.196l-19.222-12.705-12.893-25.914 4.672 44.846-4.672-3.826-9.764-66.103h-4.04c-1.581 0-3.261-1.413-5.04-4.24l-.19-.308-7.09-19.856L0 110.312l7.028-10.416 5.13-4.591h5.483c1.056-25.069 1.584-39.561 1.584-43.478 0-5.875 17.31-34.204 24.58-38.264C51.075 9.502 118.2 0 138.395 0zm13.948 50.716c-12.988 6.155-23.647 8.774-31.976 7.858-8.33-.915-24.561.051-48.696 2.9l-25.5 2.823c-4.344-.872-6.987 1.07-7.93 5.825-.942 4.755-2.204 13.526-3.784 26.313l-3.68 28.115-3.901 17.789-1.252 10.142V164.5l6.633 17.332 13.915 26.857 11.074 7.262 6.452 2.001-1.614-4.759-1.39-7.07a64.69 64.69 0 007.086 12.193c2.822 3.833 7.387 9.413 13.696 16.738 14.98 2.388 24.39 3.583 28.231 3.583 3.84 0 11.819-.666 23.935-1.999 10.113-10.638 15.478-16.746 16.096-18.322.618-1.577 2.403-4.97 5.357-10.18.035 5.169-.526 8.562-1.68 10.18-1.156 1.618 2.316-.09 10.415-5.123 4.965-2.995 8.562-6.757 10.793-11.287 2.23-4.529 4.558-9.611 6.98-15.247l3.503-7.891 4.708-11.413c1.75-4.818 1.75-13.157 0-25.016-1.75-11.86-3.08-18.675-3.987-20.447l-6.686-37.402c-3.57-16.316-10.37-26.128-20.4-29.437-3.885.327-3.211-.05-5.327-.747-.46-.453-.817-1.65-1.07-3.59zm49.763 48.27c-1.287 0-3.993 1.884-8.117 5.653l-.32.294h6.381c.983 0 2.512 1.478 4.588 4.434l.21.3 2.805 7.26v7.386l-.723 10.182-2.082 6.542h-6.321l-4.02 1.99c1.327 7.457 3.175 11.185 5.543 11.185 4.526 0 5.58-4.4 7.603-13.175 3.243-14.068 4.266-23.913 3.068-29.537-4.424-8.343-7.295-12.515-8.615-12.515zM5.266 112.657c-.577 3.43.575 11.98 1.268 16.136 3.143 18.85 7.883 26.813 14.22 23.89v-11.702c-3.957.847-6.773.048-8.445-2.399-2.508-3.67-2.921-12.924-2.306-19.164.3-3.034.794-6.795 4.848-12.155 1.574-2.08 4.338-2.508 8.292-1.282-1.798-2.161-3.084-3.388-3.858-3.68-5.587-2.109-12.423.861-14.02 10.356zm192.268-5.677c-4.577 0-6.29 5.79-5.139 17.367 2.315 0 3.473 1.052 3.473 3.155 0 2.007-.668 3.499-2.003 4.475l-.196.136 1.601 7.791c2.943-1.077 4.432-1.618 4.467-1.623 1.02-.134 2.457.772 3.341 0 .951-.83 1.314-3.337 1.32-3.365 3.308-15.67-.023-27.936-6.864-27.936zm-177.735-.04c-4.399 0-11.385 9.39-6.768 29.131.565 3.068 2.964 3.125 4.459 3.229.905.062 2.347.062 4.326 0l1.117-8.264c-1.346-.524-2.018-1.726-2.018-3.604 0-1.878 1.124-2.92 3.373-3.123l1.65-9.975c-1.16-4.93-3.206-7.395-6.139-7.395zm172.888 19.305c-.828 0-.1 1.295 0 2.185.101.89.101 1.709.93 1.709.72 0 .792-1.195.798-2.05v-.358c0-.829-.9-1.486-1.727-1.486zm-168.762.102c-.828 0-1.51.521-1.51 1.35 0 .828.27 2.08 1.099 2.08.698 0 .766-.629.77-1.322v-.393c0-.829.47-1.715-.359-1.715z" fill="#000"/><path d="M86.514 157.117c0-5.528 3.425-7.74 9.189-6.156a1.5 1.5 0 01-.795 2.893c-3.958-1.088-5.394-.16-5.394 3.263 0 3.63.836 6.071 2.432 7.454l.194.16h8.961l.446.487c2.237 2.443 4.5 3.611 6.828 3.611 2.239 0 4.41-1.079 6.552-3.332l.257-.276.446-.49h8.682l.218-.127c2.303-1.392 3.452-3.42 3.531-6.24l.005-.316-.007-.773c-.034-1.822-.194-2.506-.437-2.695-.297-.231-.983-.318-3.293-.326l-1.79.002a1.5 1.5 0 010-3h2.22c2.887.017 3.704.177 4.707.958 1.311 1.021 1.6 2.461 1.6 5.834 0 4.186-1.823 7.366-5.365 9.345l-.308.167-.327.171h-8.127l-.112.116c-2.503 2.529-5.219 3.88-8.116 3.977l-.336.005c-3.022 0-5.854-1.355-8.464-3.98l-.115-.119-8.586.001-.375-.247c-2.915-1.919-4.32-5.433-4.32-10.367z" fill="#000" fill-rule="nonzero"/><path d="M76.34 196.228l.629-2.176h-2.497l-.565 2.176-1.22 2.14 2.336.697.675-1.097c5.022 3.52 8.418 5.28 10.189 5.28 1.77 0 9.626-.252 23.567-.754l18.853.753 11.942-5.065 2.692.883.811-1.946c-1.324-.759-1.986-1.245-1.986-1.458 0-.212-.152-1.162-.456-2.85l-1.784.367c.145.706.145 1.243 0 1.61-.146.369-.548.848-1.208 1.44l-16.893-.567c-3.983-1.9-6.881-2.85-8.693-2.85-1.812 0-3.12.8-3.922 2.399-.716-1.843-2.16-2.643-4.335-2.398-2.174.244-5.282 1.194-9.323 2.85l-18.812.566z" fill="#000"/><path d="M79.07 198.144c5.048 1.749 8.242 2.623 9.582 2.623 1.34 0 8.255-.268 20.744-.806l16.64.806 8.766-2.76-12.828.137c-4.387-1.729-7.267-2.593-8.639-2.593-1.371 0-2.685.695-3.94 2.086-1.76-1.576-3.463-2.271-5.109-2.086-1.646.185-3.788.88-6.427 2.086l-18.788.507z" fill="#D58383"/><path d="M100.876 209.69c-.864 1.031-1.177 1.816-.94 2.352.238.536 1.246 1.32 3.025 2.352h9.953c1.653-.667 2.71-1.45 3.173-2.352.463-.902.06-1.686-1.211-2.353h-14z" fill="#D8A76A"/><rect fill="#000" x="100.876" y="208.689" width="14" height="2" rx="1"/><path d="M49.973 117.446l36.157-4.788 3.333 2.697A1.25 1.25 0 0188 117.378l-.11-.08-2.499-2.02-35.09 4.647a1.25 1.25 0 01-1.38-.95l-.023-.125a1.25 1.25 0 01.95-1.38l.125-.024zM167.83 117.446l-36.158-4.788-3.332 2.697a1.25 1.25 0 001.462 2.023l.11-.08 2.5-2.02 35.089 4.647a1.25 1.25 0 001.38-.95l.023-.125a1.25 1.25 0 00-.949-1.38l-.126-.024z" fill="#000" fill-rule="nonzero"/><path d="M91.27 92.21c-1.077.826-1.842 1.63-2.296 2.41-.454.781-.848 1.974-1.184 3.58-.998 1.047-2.119 1.047-3.36 0-1.864-1.571-15.958-4.208-26.961-1.654-2.355.546-4.487.984-6.394 1.311.523-1.964 1.016-3.282 1.478-3.953 1.133-1.643 2.877-2.422 3.86-2.974 3.502-1.968 10.092-3.117 16.215-2.882 4.083.157 10.297 1.545 18.643 4.163zM125.876 92.21c1.077.826 1.843 1.63 2.296 2.41.454.781.849 1.974 1.184 3.58.999 1.047 2.12 1.047 3.361 0 1.864-1.571 15.958-4.208 26.96-1.654 2.356.546 4.487.984 6.395 1.311-.523-1.964-1.016-3.282-1.479-3.953-1.132-1.643-2.877-2.422-3.86-2.974-3.502-1.968-10.091-3.117-16.215-2.882-4.082.157-10.296 1.545-18.642 4.163z" fill="#7E694C"/><path d="M131.63 156.71c.49-.485 2.686 1.278 3.172 1.768 6.532 6.586 9.207 11.106 10.805 17.105a1.25 1.25 0 01-2.415.643c-1.472-5.523-3.93-10.459-10.18-16.76-.486-.49-1.872-2.27-1.382-2.755zM85.896 156.71c-.49-.485-1.964.914-2.45 1.404-6.533 6.585-9.93 11.47-11.528 17.469a1.25 1.25 0 102.416.643c1.472-5.523 4.664-11.262 10.914-17.562.486-.49 1.138-1.467.648-1.953z" fill="#D3B692" fill-rule="nonzero"/><path d="M77.876 47.954c4.282 2.13 7.6 3.486 9.956 4.069 2.356.583 6.097.975 11.223 1.175-3.392.64-6.833.96-10.323.96-3.491 0-7.11-2.068-10.856-6.204zm95.857-35.588L190.2 23.61l-7.1.817 7.6 8.351-5.07-1.068 5.223 10.907-6.173 2.598 5.52 5.84c-3.771-.365-5.906-.548-6.403-.548-.497 0-2.29-2.404-5.38-7.214 4.34-1.075 6.744-1.612 7.213-1.612.47 0-2.438-2.968-8.722-8.903h5.385L174.8 21.522h4.648l-5.715-9.156zM92.775 39.96c4.187.54 7.138 1.211 8.854 2.011 2.573 1.2 5.552 7.181 4.356 5.982-.797-.8-5.2-3.464-13.21-7.993zm12.427-4.078l13.012 8.153h-3.764c-1.77 0-6.418-2.717-13.944-8.153h4.696zm28.817-14.36l8.176 9.703v12.81c-.778 0-1.167-.473-1.167-1.418 0-.946-2.336-6.052-7.01-15.319v-5.777zm-14.25 2.905l4.912 2.51 7.384 8.945.804 6.735c-5.459-6.45-8.812-10.115-10.06-10.994-1.249-.88-2.262-3.278-3.04-7.196zm-11.262 6.102c4.71 1.365 7.406 2.048 8.087 2.048.682 0 3.377 2.696 8.087 8.089h-5.357c-.754 0-4.36-3.38-10.817-10.137zm32.57-18.164c2.23 2.358 3.966 5.117 5.21 8.275 1.865 4.737-.951 23.11 0 14.957.634-5.435-1.103-13.18-5.21-23.232zM148.203 11c3.54 2.294 5.857 5.54 6.949 9.738 1.092 4.197.053 8.85-3.116 13.958v-11.23c0-1.696-1.278-5.851-3.833-12.466z" fill="#FFF"/></g></g></svg>